<svg viewBox = "0 0 88 88" width="88" height="88" xmlns="http://www.w3.org/2000/svg"><g transform="matrix(1 0 0 1 44 44)"  ><g style=""   ><g transform="matrix(0.71 -0.71 0.71 0.71 -5.83 -24.16)"  ><rect style="stroke: none; stroke-width: 1; stroke-dasharray: none; stroke-linecap: butt; stroke-dashoffset: 0; stroke-linejoin: miter; stroke-miterlimit: 4; fill: rgb(97,214,232); fill-rule: nonzero; opacity: 1;"  x="-7.07235" y="-15.3234" rx="7.07233" ry="7.07233" width="14.1447" height="30.6468" /></g><g transform="matrix(0.71 0.71 -0.71 0.71 24.16 -5.83)"  ><rect style="stroke: none; stroke-width: 1; stroke-dasharray: none; stroke-linecap: butt; stroke-dashoffset: 0; stroke-linejoin: miter; stroke-miterlimit: 4; fill: rgb(240,208,65); fill-rule: nonzero; opacity: 1;"  x="-7.07235" y="-15.3234" rx="7.07233" ry="7.07233" width="14.1447" height="30.6468" /></g><g transform="matrix(-0.71 0.71 -0.71 -0.71 5.83 24.16)"  ><rect style="stroke: none; stroke-width: 1; stroke-dasharray: none; stroke-linecap: butt; stroke-dashoffset: 0; stroke-linejoin: miter; stroke-miterlimit: 4; fill: rgb(97,214,232); fill-rule: nonzero; opacity: 1;"  x="-7.07235" y="-15.3234" rx="7.07233" ry="7.07233" width="14.1447" height="30.6468" /></g><g transform="matrix(-0.71 -0.71 0.71 -0.71 -24.16 5.83)"  ><rect style="stroke: none; stroke-width: 1; stroke-dasharray: none; stroke-linecap: butt; stroke-dashoffset: 0; stroke-linejoin: miter; stroke-miterlimit: 4; fill: rgb(240,208,65); fill-rule: nonzero; opacity: 1;"  x="-7.07235" y="-15.3234" rx="7.07233" ry="7.07233" width="14.1447" height="30.6468" /></g><g transform="matrix(0.71 0.71 -0.71 0.71 5.83 -24.16)"  ><rect style="stroke: none; stroke-width: 1; stroke-dasharray: none; stroke-linecap: butt; stroke-dashoffset: 0; stroke-linejoin: miter; stroke-miterlimit: 4; fill: rgb(247,147,183); fill-rule: nonzero; opacity: 1;"  x="-7.07235" y="-15.3234" rx="7.07233" ry="7.07233" width="14.1447" height="30.6468" /></g><g transform="matrix(-0.71 0.71 -0.71 -0.71 24.16 5.83)"  ><rect style="stroke: none; stroke-width: 1; stroke-dasharray: none; stroke-linecap: butt; stroke-dashoffset: 0; stroke-linejoin: miter; stroke-miterlimit: 4; fill: rgb(247,147,183); fill-rule: nonzero; opacity: 1;"  x="-7.07235" y="-15.3234" rx="7.07233" ry="7.07233" width="14.1447" height="30.6468" /></g><g transform="matrix(-0.71 -0.71 0.71 -0.71 -5.83 24.16)"  ><rect style="stroke: none; stroke-width: 1; stroke-dasharray: none; stroke-linecap: butt; stroke-dashoffset: 0; stroke-linejoin: miter; stroke-miterlimit: 4; fill: rgb(247,147,183); fill-rule: nonzero; opacity: 1;"  x="-7.07235" y="-15.3234" rx="7.07233" ry="7.07233" width="14.1447" height="30.6468" /></g><g transform="matrix(0.71 -0.71 0.71 0.71 -24.16 -5.83)"  ><rect style="stroke: none; stroke-width: 1; stroke-dasharray: none; stroke-linecap: butt; stroke-dashoffset: 0; stroke-linejoin: miter; stroke-miterlimit: 4; fill: rgb(247,147,183); fill-rule: nonzero; opacity: 1;"  x="-7.07235" y="-15.3234" rx="7.07233" ry="7.07233" width="14.1447" height="30.6468" /></g></g></g></svg>